<svg width="36" height="18" viewBox="0 0 36 18" fill="none" xmlns="http://www.w3.org/2000/svg">
<path d="M7.3125 0C6.96973 0 6.64453 0.158204 6.43359 0.430663L0.246094 8.30566C-0.0791016 8.70996 -0.0791016 9.29004 0.246094 9.69434L6.43359 17.5693C6.64453 17.8418 6.96973 18 7.3125 18H32.625C34.4795 18 36 16.4795 36 14.625V3.375C36 1.52051 34.4795 0 32.625 0H7.3125ZM7.85742 2.25H32.625C33.2578 2.25 33.75 2.74219 33.75 3.375V14.625C33.75 15.2578 33.2578 15.75 32.625 15.75H7.85742L2.55762 9L7.85742 2.25ZM17.3848 4.55274L15.8027 6.13477L18.6592 9L15.8027 11.8652L17.3848 13.4473L20.25 10.5908L23.1064 13.4473L24.7061 11.8652L21.8408 9L24.7061 6.13477L23.1064 4.55274L20.25 7.40918L17.3848 4.55274Z" fill="white"/>
</svg>
