<svg width="340" height="340" viewBox="0 0 340 340" fill="none" xmlns="http://www.w3.org/2000/svg">
<g clip-path="url(#clip0)">
<path d="M162.669 97.8563C161.168 96.8071 159.216 96.7142 157.622 97.5907C156.015 98.4806 155.059 100.181 155.125 102V110.925L125.481 110.819C109.597 110.819 96.6876 123.728 96.6876 139.613L96.6876 154.913L30.6001 154.913L30.6001 164.688L96.6876 164.688L96.6876 175.313L30.6001 175.313L30.6001 185.088L96.6876 185.088L96.6876 200.388C96.6876 216.272 109.597 229.181 125.481 229.181L155.125 229.075V238C154.939 239.833 155.789 241.613 157.356 242.595C158.91 243.565 160.902 243.565 162.456 242.595C164.024 241.613 164.874 239.833 164.688 238V102C164.727 100.685 164.223 99.4368 163.306 98.4938C163.2 98.3876 163.094 98.2813 162.988 98.1751C162.881 98.0688 162.775 97.9626 162.669 97.8563ZM155.125 120.488L155.125 219.513L125.588 219.513C114.909 219.513 106.356 210.959 106.356 200.281L106.356 139.719C106.356 129.041 114.909 120.488 125.588 120.488H155.125Z" fill="black"/>
<path fill-rule="evenodd" clip-rule="evenodd" d="M309.4 154.912L243.312 154.912L243.312 139.612C243.312 131.67 240.151 124.551 234.918 119.319C229.686 114.086 222.461 110.819 214.518 110.819L184.875 110.925V102C184.928 100.539 184.29 99.1312 183.175 98.1749C181.714 96.9796 179.695 96.7406 178.022 97.564C176.322 98.3874 175.272 100.127 175.312 102L175.312 238C175.126 239.833 175.976 241.612 177.543 242.595C179.097 243.565 181.09 243.565 182.643 242.595C184.211 241.612 185.061 239.833 184.875 238V229.075L213.668 229.181L214.518 229.181C230.403 229.181 243.312 216.272 243.312 200.387L243.312 185.087L309.4 185.087L309.4 175.312L243.312 175.312L243.312 164.687L309.4 164.687L309.4 154.912ZM233.643 139.719C233.643 134.38 231.492 129.492 228.012 126.012C224.533 122.533 219.751 120.487 214.412 120.487H184.875L184.875 219.512L214.412 219.512C225.09 219.512 233.643 210.959 233.643 200.281L233.643 139.719Z" fill="black"/>
</g>
<defs>
<clipPath id="clip0">
<rect width="240.416" height="240.416" fill="white" transform="translate(170) rotate(45)"/>
</clipPath>
</defs>
</svg>
