<svg width="24" height="24" viewBox="0 0 24 24" fill="none" xmlns="http://www.w3.org/2000/svg">
<path d="M20.4609 2.46094L18.4688 4.45312L18.1406 4.10156C17.4111 3.37207 16.4531 3 15.4922 3C14.5312 3 13.5732 3.37207 12.8438 4.10156L12.3047 4.61719L11.625 5.29688L11.0391 4.71094L9.96094 5.78906L12.0469 7.875L9.96094 9.96094L11.0391 11.0391L13.125 8.95312L15.0469 10.875L12.9609 12.9609L14.0391 14.0391L16.125 11.9531L18.2109 14.0391L19.2891 12.9609L18.7031 12.375L19.8984 11.1562C21.3574 9.69727 21.3574 7.31836 19.8984 5.85938L19.5469 5.53125L21.5391 3.53906L20.4609 2.46094ZM15.4922 4.5C16.0664 4.5 16.6436 4.71387 17.0859 5.15625L18.8438 6.91406C19.7285 7.79883 19.7285 9.2168 18.8438 10.1016L18.6562 10.2656L17.625 11.2969L12.7031 6.375L13.8984 5.15625C14.3408 4.71387 14.918 4.5 15.4922 4.5ZM5.78906 9.96094L4.71094 11.0391L5.29688 11.625L4.10156 12.8438C2.64258 14.3027 2.64258 16.6816 4.10156 18.1406L4.42969 18.4922L2.46094 20.4609L3.53906 21.5391L5.50781 19.5703L5.85938 19.8984C7.31836 21.3574 9.69727 21.3574 11.1562 19.8984L12.375 18.7031L12.9609 19.2891L14.0391 18.2109L5.78906 9.96094ZM6.375 12.7031L11.2969 17.625L10.1016 18.8438C9.2168 19.7285 7.79883 19.7285 6.91406 18.8438L6.75 18.6562L5.15625 17.0859C4.27148 16.2012 4.27148 14.7832 5.15625 13.8984L6.375 12.7031Z" fill="white"/>
</svg>
