<?xml version="1.0" standalone="no"?>
<!DOCTYPE svg PUBLIC "-//W3C//DTD SVG 20010904//EN"
 "http://www.w3.org/TR/2001/REC-SVG-20010904/DTD/svg10.dtd">
<svg version="1.0" xmlns="http://www.w3.org/2000/svg"
 width="1080.000000pt" height="1080.000000pt" viewBox="0 0 1080.000000 1080.000000"
 preserveAspectRatio="xMidYMid meet">
<metadata>
Created by potrace 1.11, written by Peter Selinger 2001-2013
</metadata>
<g transform="translate(0.000000,1080.000000) scale(0.100000,-0.100000)"
fill="#000000" stroke="none">
<path d="M3115 7419 c-377 -48 -748 -204 -1035 -436 -372 -301 -625 -718 -725
-1193 -36 -169 -45 -464 -21 -650 96 -728 578 -1351 1258 -1626 138 -55 261
-91 420 -121 147 -28 543 -25 698 4 399 77 758 260 1046 535 86 83 204 217
204 232 0 4 -31 53 -68 109 -38 56 -122 188 -187 292 -64 105 -124 201 -132
213 -14 23 -15 23 -60 -55 -329 -562 -993 -809 -1606 -597 -395 137 -704 449
-835 840 -88 262 -94 551 -16 822 81 283 288 566 537 733 217 146 437 215 712
225 385 15 675 -102 973 -390 246 -237 424 -489 857 -1211 258 -431 456 -725
623 -925 410 -491 856 -760 1383 -835 121 -17 388 -20 509 -5 503 63 971 313
1300 696 243 282 396 604 465 981 23 119 31 430 16 564 -80 694 -508 1300
-1136 1604 -824 400 -1813 201 -2412 -487 -47 -54 -83 -101 -81 -105 2 -5 46
-73 99 -153 52 -80 135 -210 183 -290 48 -80 95 -156 103 -169 l15 -24 32 59
c195 363 558 615 981 680 122 19 343 14 460 -11 422 -88 760 -348 945 -728
156 -321 182 -674 73 -1011 -197 -610 -795 -997 -1432 -927 -315 34 -547 156
-816 426 -209 210 -401 479 -723 1010 -383 632 -490 795 -671 1020 -117 146
-328 365 -436 452 -251 202 -539 347 -822 413 -194 46 -489 62 -678 39z"/>
</g>
</svg>
