<svg width="61" height="25" viewBox="0 0 61 25" fill="none" xmlns="http://www.w3.org/2000/svg">
<path d="M8.912 24.288C14.8 24.288 17.584 20.864 17.584 15.296V1.12H14.8V14.912C14.8 20.512 12.624 21.984 8.976 21.984C5.168 21.984 3.472 20.128 3.472 15.328V1.12H0.688V15.648C0.688 21.216 3.664 24.288 8.912 24.288ZM30.0093 24.288C33.8813 24.288 37.8813 22.016 37.8813 17.44C37.8813 14.496 36.1533 12.512 33.4973 11.552C35.6093 10.624 37.0173 9.024 37.0173 6.72C37.0173 3.136 33.5613 0.831999 30.0093 0.831999C26.4893 0.831999 22.9693 3.072 22.9693 6.784C22.9693 9.024 24.2493 10.752 26.4253 11.584C23.9933 12.448 22.1053 14.432 22.1053 17.504C22.1053 22.048 26.2653 24.288 30.0093 24.288ZM30.1053 10.592C27.7693 10.592 25.7853 9.216 25.7853 6.816C25.7853 4.448 27.6413 3.008 30.0093 3.008C32.3773 3.008 34.2013 4.544 34.2013 6.752C34.2013 9.184 32.5373 10.592 30.1053 10.592ZM30.0093 22.016C27.3533 22.016 24.9533 20.416 24.9533 17.408C24.9533 14.368 27.3533 12.8 30.0733 12.8C32.7933 12.8 35.0333 14.336 35.0333 17.344C35.0333 20.384 32.8253 22.016 30.0093 22.016ZM42.5988 24H48.5828C56.5828 24 60.2308 18.976 60.2308 12.64V12.352C60.2308 5.984 56.5188 1.12 48.6468 1.12H42.5988V24ZM45.3828 21.728V3.36H48.4868C54.7908 3.36 57.3507 7.072 57.3507 12.352V12.608C57.3507 18.208 54.4068 21.728 48.5188 21.728H45.3828Z" fill="url(#paint0_linear)"/>
<defs>
<linearGradient id="paint0_linear" x1="-2" y1="16.1509" x2="61.9989" y2="16.6455" gradientUnits="userSpaceOnUse">
<stop stop-color="#E60419"/>
<stop offset="0.213532" stop-color="#B642E1"/>
<stop offset="0.509645" stop-color="#C0E531"/>
<stop offset="0.805757" stop-color="#11CCF7"/>
<stop offset="1" stop-color="#4B12B7"/>
</linearGradient>
</defs>
</svg>
