<svg width="26" height="26" viewBox="0 0 26 26" fill="none" xmlns="http://www.w3.org/2000/svg">
<path d="M24.2812 0.28125L21.625 2.9375L21.1875 2.46875C20.2148 1.49609 18.9375 1 17.6562 1C16.375 1 15.0977 1.49609 14.125 2.46875L13.4062 3.15625L12.5 4.0625L11.7188 3.28125L10.2812 4.71875L13.0625 7.5L10.2812 10.2812L11.7188 11.7188L14.5 8.9375L17.0625 11.5L14.2812 14.2812L15.7188 15.7188L18.5 12.9375L21.2812 15.7188L22.7188 14.2812L21.9375 13.5L23.5312 11.875C25.4766 9.92969 25.4766 6.75781 23.5312 4.8125L23.0625 4.375L25.7188 1.71875L24.2812 0.28125ZM17.6562 3C18.4219 3 19.1914 3.28516 19.7812 3.875L22.125 6.21875C23.3047 7.39844 23.3047 9.28906 22.125 10.4688L21.875 10.6875L20.5 12.0625L13.9375 5.5L15.5312 3.875C16.1211 3.28516 16.8906 3 17.6562 3ZM4.71875 10.2812L3.28125 11.7188L4.0625 12.5L2.46875 14.125C0.523438 16.0703 0.523438 19.2422 2.46875 21.1875L2.90625 21.6562L0.28125 24.2812L1.71875 25.7188L4.34375 23.0938L4.8125 23.5312C6.75781 25.4766 9.92969 25.4766 11.875 23.5312L13.5 21.9375L14.2812 22.7188L15.7188 21.2812L4.71875 10.2812ZM5.5 13.9375L12.0625 20.5L10.4688 22.125C9.28906 23.3047 7.39844 23.3047 6.21875 22.125L6 21.875L3.875 19.7812C2.69531 18.6016 2.69531 16.7109 3.875 15.5312L5.5 13.9375Z" fill="black"/>
</svg>
